<svg preserveAspectRatio="none" width="100%" height="100%" overflow="visible" style="display: block;" viewBox="0 0 25 28" fill="none" xmlns="http://www.w3.org/2000/svg">
<g id="Icon">
<path id="Vector" d="M0.343333 8.16667V9.69792C0.343333 10.3947 0.699815 10.9618 1.41278 11.3993C2.12574 11.8368 3.06556 12.0556 4.23222 12.0556C4.44287 12.0556 4.64542 12.0515 4.83986 12.0434C5.03431 12.0353 5.22065 12.015 5.39889 11.9826C5.17204 11.6424 5.0019 11.2859 4.88847 10.9132C4.77505 10.5405 4.71833 10.1516 4.71833 9.74653V8.16667H0.343333ZM6.17667 8.16667V9.74653C6.17667 10.265 6.31845 10.739 6.60201 11.1684C6.88558 11.5978 7.28662 11.9745 7.80514 12.2986C8.32366 12.6227 8.94345 12.8657 9.66451 13.0278C10.3856 13.1898 11.1674 13.2708 12.01 13.2708C12.8688 13.2708 13.6587 13.1898 14.3798 13.0278C15.1009 12.8657 15.7206 12.6227 16.2392 12.2986C16.7577 11.9745 17.1547 11.5978 17.4301 11.1684C17.7056 10.739 17.8433 10.265 17.8433 9.74653V8.16667H6.17667ZM19.3017 8.16667V9.74653C19.3017 10.1678 19.249 10.5648 19.1437 10.9375C19.0384 11.3102 18.8804 11.6586 18.6697 11.9826C18.848 12.015 19.0303 12.0353 19.2166 12.0434C19.4029 12.0515 19.5933 12.0556 19.7878 12.0556C20.9544 12.0556 21.8943 11.8409 22.6072 11.4115C23.3202 10.9821 23.6767 10.4109 23.6767 9.69792V8.16667H19.3017ZM8.24264 10.1111H15.8017C15.6396 10.4352 15.19 10.7188 14.4527 10.9618C13.7154 11.2049 12.9012 11.3264 12.01 11.3264C11.1188 11.3264 10.3046 11.2049 9.56729 10.9618C8.83002 10.7188 8.38847 10.4352 8.24264 10.1111ZM4.23222 13.0278C3.6975 13.0278 3.23975 13.2182 2.85896 13.599C2.47817 13.9797 2.28778 14.4375 2.28778 14.9722C2.28778 15.5231 2.47817 15.985 2.85896 16.3576C3.23975 16.7303 3.6975 16.9167 4.23222 16.9167C4.78315 16.9167 5.24495 16.7303 5.61764 16.3576C5.99032 15.985 6.17667 15.5231 6.17667 14.9722C6.17667 14.4375 5.99032 13.9797 5.61764 13.599C5.24495 13.2182 4.78315 13.0278 4.23222 13.0278ZM19.7878 13.0278C19.2531 13.0278 18.7953 13.2182 18.4145 13.599C18.0337 13.9797 17.8433 14.4375 17.8433 14.9722C17.8433 15.5231 18.0337 15.985 18.4145 16.3576C18.7953 16.7303 19.2531 16.9167 19.7878 16.9167C20.3387 16.9167 20.8005 16.7303 21.1732 16.3576C21.5459 15.985 21.7322 15.5231 21.7322 14.9722C21.7322 14.4375 21.5459 13.9797 21.1732 13.599C20.8005 13.2182 20.3387 13.0278 19.7878 13.0278ZM12.01 14C11.1998 14 10.5112 14.2836 9.94403 14.8507C9.3769 15.4178 9.09333 16.1065 9.09333 16.9167C9.09333 17.7431 9.3769 18.4358 9.94403 18.9948C10.5112 19.5538 11.1998 19.8333 12.01 19.8333C12.8364 19.8333 13.5291 19.5538 14.0881 18.9948C14.6472 18.4358 14.9267 17.7431 14.9267 16.9167C14.9267 16.1065 14.6472 15.4178 14.0881 14.8507C13.5291 14.2836 12.8364 14 12.01 14ZM12.01 15.9444C12.2855 15.9444 12.5164 16.0376 12.7027 16.224C12.8891 16.4103 12.9822 16.6412 12.9822 16.9167C12.9822 17.1921 12.8891 17.423 12.7027 17.6094C12.5164 17.7957 12.2855 17.8889 12.01 17.8889C11.7345 17.8889 11.5036 17.7957 11.3173 17.6094C11.1309 17.423 11.0378 17.1921 11.0378 16.9167C11.0378 16.6412 11.1309 16.4103 11.3173 16.224C11.5036 16.0376 11.7345 15.9444 12.01 15.9444Z" fill="var(--fill-0, #019863)"/>
</g>
</svg>
