<svg preserveAspectRatio="none" width="100%" height="100%" overflow="visible" style="display: block;" viewBox="0 0 24 24" fill="none" xmlns="http://www.w3.org/2000/svg">
<g id="image">
<path id="Vector" d="M17.0306 15.9694C17.1004 16.039 17.1557 16.1217 17.1934 16.2128C17.2312 16.3038 17.2506 16.4014 17.2506 16.5C17.2506 16.5986 17.2312 16.6962 17.1934 16.7872C17.1557 16.8783 17.1004 16.961 17.0306 17.0306L12.5306 21.5306C12.461 21.6004 12.3783 21.6557 12.2872 21.6934C12.1962 21.7312 12.0986 21.7506 12 21.7506C11.9014 21.7506 11.8038 21.7312 11.7128 21.6934C11.6217 21.6557 11.539 21.6004 11.4694 21.5306L6.96937 17.0306C6.82864 16.8899 6.74958 16.699 6.74958 16.5C6.74958 16.301 6.82864 16.1101 6.96937 15.9694C7.11011 15.8286 7.30098 15.7496 7.5 15.7496C7.69902 15.7496 7.8899 15.8286 8.03063 15.9694L12 19.9397L15.9694 15.9694C16.039 15.8996 16.1217 15.8443 16.2128 15.8066C16.3038 15.7688 16.4014 15.7494 16.5 15.7494C16.5986 15.7494 16.6962 15.7688 16.7872 15.8066C16.8783 15.8443 16.961 15.8996 17.0306 15.9694ZM8.03063 8.03063L12 4.06031L15.9694 8.03063C16.1101 8.17136 16.301 8.25042 16.5 8.25042C16.699 8.25042 16.8899 8.17136 17.0306 8.03063C17.1714 7.8899 17.2504 7.69902 17.2504 7.5C17.2504 7.30098 17.1714 7.11011 17.0306 6.96937L12.5306 2.46938C12.461 2.39964 12.3783 2.34432 12.2872 2.30658C12.1962 2.26884 12.0986 2.24941 12 2.24941C11.9014 2.24941 11.8038 2.26884 11.7128 2.30658C11.6217 2.34432 11.539 2.39964 11.4694 2.46938L6.96937 6.96937C6.82864 7.11011 6.74958 7.30098 6.74958 7.5C6.74958 7.69902 6.82865 7.88989 6.96938 8.03062C7.11011 8.17136 7.30098 8.25042 7.5 8.25042C7.69902 8.25042 7.8899 8.17136 8.03063 8.03063Z" fill="var(--fill-0, #0A3047)"/>
</g>
</svg>
