<svg preserveAspectRatio="none" width="100%" height="100%" overflow="visible" style="display: block;" viewBox="0 0 25 28" fill="none" xmlns="http://www.w3.org/2000/svg">
<g id="Icon">
<path id="Vector" d="M13.9544 4.27778V7.26736L19.326 12.6146C19.4718 12.7604 19.6338 12.8657 19.8121 12.9306C19.9903 12.9954 20.1686 13.0278 20.3468 13.0278C20.5413 13.0278 20.7276 12.9913 20.9058 12.9184C21.0841 12.8455 21.2461 12.7361 21.3919 12.5903L22.2913 11.691C22.4209 11.5451 22.5222 11.3831 22.5951 11.2049C22.668 11.0266 22.7044 10.8484 22.7044 10.6701C22.7044 10.4919 22.672 10.3096 22.6072 10.1233C22.5424 9.93692 22.4371 9.77083 22.2913 9.625L16.944 4.27778H13.9544ZM15.4128 5.73611H16.3364L19.2774 8.70139L18.8399 9.16319L18.3781 9.60069L15.4128 6.65972V5.73611ZM6.17667 4.27778C5.64194 4.27778 5.18419 4.46817 4.8034 4.84896C4.42262 5.22975 4.23222 5.6875 4.23222 6.22222V21.7778C4.23222 22.3125 4.42262 22.7703 4.8034 23.151C5.18419 23.5318 5.64194 23.7222 6.17667 23.7222H13.9544L19.7878 17.8889V14.9722H17.8433V16.9167H12.9822V21.7778H6.17667V6.22222H12.01V4.27778H6.17667ZM18.8399 9.16319L18.3781 9.60069L19.2774 8.70139L18.8399 9.16319Z" fill="var(--fill-0, #019863)"/>
</g>
</svg>
