<svg preserveAspectRatio="none" width="100%" height="100%" overflow="visible" style="display: block;" viewBox="0 0 16 20" fill="none" xmlns="http://www.w3.org/2000/svg">
<g id="Icon">
<path id="Vector" d="M7.06667 6.93333L11.7667 11.6333L10.8333 12.5667L7.06667 8.8L5.16667 10.7L4.23333 9.76667L7.06667 6.93333ZM8 3.33333C7.07778 3.33333 6.21111 3.50833 5.4 3.85833C4.58889 4.20833 3.88333 4.68333 3.28333 5.28333C2.68333 5.88333 2.20833 6.58889 1.85833 7.4C1.50833 8.21111 1.33333 9.07778 1.33333 10C1.33333 10.9222 1.50833 11.7889 1.85833 12.6C2.20833 13.4111 2.68333 14.1167 3.28333 14.7167C3.88333 15.3167 4.58889 15.7917 5.4 16.1417C6.21111 16.4917 7.07778 16.6667 8 16.6667C8.92222 16.6667 9.78889 16.4917 10.6 16.1417C11.4111 15.7917 12.1167 15.3167 12.7167 14.7167C13.3167 14.1167 13.7917 13.4111 14.1417 12.6C14.4917 11.7889 14.6667 10.9222 14.6667 10C14.6667 9.07778 14.4917 8.21111 14.1417 7.4C13.7917 6.58889 13.3167 5.88333 12.7167 5.28333C12.1167 4.68333 11.4111 4.20833 10.6 3.85833C9.78889 3.50833 8.92222 3.33333 8 3.33333ZM8 4.66667C9.48889 4.66667 10.75 5.18333 11.7833 6.21667C12.8167 7.25 13.3333 8.51111 13.3333 10C13.3333 11.4889 12.8167 12.75 11.7833 13.7833C10.75 14.8167 9.48889 15.3333 8 15.3333C6.51111 15.3333 5.25 14.8167 4.21667 13.7833C3.18333 12.75 2.66667 11.4889 2.66667 10C2.66667 8.51111 3.18333 7.25 4.21667 6.21667C5.25 5.18333 6.51111 4.66667 8 4.66667Z" fill="var(--fill-0, #019863)"/>
</g>
</svg>
