<svg preserveAspectRatio="none" width="100%" height="100%" overflow="visible" style="display: block;" viewBox="0 0 32 38" fill="none" xmlns="http://www.w3.org/2000/svg">
<g id="Icon">
<path id="Vector" d="M8.08333 16.3611H12.1076L18.7049 22.9583C18.9028 23.1563 19.0512 23.3817 19.1502 23.6345C19.2491 23.8874 19.2986 24.1348 19.2986 24.3767C19.2986 24.6186 19.2436 24.855 19.1337 25.0859C19.0237 25.3168 18.8808 25.5313 18.7049 25.7292L17.5174 26.9826C17.3194 27.1806 17.0995 27.329 16.8576 27.428C16.6157 27.5269 16.3628 27.5764 16.099 27.5764C15.8571 27.5764 15.6097 27.5269 15.3568 27.428C15.1039 27.329 14.8785 27.1806 14.6806 26.9826L8.08333 20.3854V16.3611ZM10.0625 18.3403V19.5938L13.3941 22.9253L14.0538 22.3316L14.6476 21.6719L11.316 18.3403H10.0625ZM14.0538 22.3316L14.6476 21.6719L13.3941 22.9253L14.0538 22.3316ZM14.9115 16.3611H23.9167V19H17.5503L14.9115 16.3611ZM2.80556 5.80556V29.5556C2.80556 30.2813 3.06395 30.9025 3.58073 31.4193C4.09751 31.9361 4.71875 32.1944 5.44444 32.1944H26.5556C27.2813 32.1944 27.9025 31.9361 28.4193 31.4193C28.9361 30.9025 29.1944 30.2813 29.1944 29.5556V13.7222C29.1944 12.9965 28.9361 12.3753 28.4193 11.8585C27.9025 11.3417 27.2813 11.0833 26.5556 11.0833H8.08333L2.80556 5.80556ZM6.96181 13.7222H26.5556V29.5556H5.44444V12.2378L6.96181 13.7222Z" fill="var(--fill-0, #019863)"/>
</g>
</svg>
