<svg preserveAspectRatio="none" width="100%" height="100%" overflow="visible" style="display: block;" viewBox="0 0 25 28" fill="none" xmlns="http://www.w3.org/2000/svg">
<g id="Icon">
<path id="Vector" d="M19.3989 5.25L13.2739 11.375C12.7878 10.9861 12.2287 10.6782 11.5968 10.4514C10.9649 10.2245 10.2924 10.1111 9.57944 10.1111C7.81324 10.1111 6.31845 10.7228 5.09507 11.9462C3.87169 13.1696 3.26 14.6644 3.26 16.4306C3.26 18.1968 3.87169 19.6916 5.09507 20.9149C6.31845 22.1383 7.81324 22.75 9.57944 22.75C11.3456 22.75 12.8404 22.1383 14.0638 20.9149C15.2872 19.6916 15.8989 18.1968 15.8989 16.4306C15.8989 15.7176 15.7855 15.0451 15.5586 14.4132C15.3318 13.7813 15.0239 13.2222 14.635 12.7361L20.76 6.61111L19.3989 5.25ZM9.57944 12.0556C10.7947 12.0556 11.8277 12.4809 12.6784 13.3316C13.5291 14.1823 13.9544 15.2153 13.9544 16.4306C13.9544 17.6458 13.5291 18.6788 12.6784 19.5295C11.8277 20.3802 10.7947 20.8056 9.57944 20.8056C8.36417 20.8056 7.33118 20.3802 6.48049 19.5295C5.62979 18.6788 5.20444 17.6458 5.20444 16.4306C5.20444 15.2153 5.62979 14.1823 6.48049 13.3316C7.33118 12.4809 8.36417 12.0556 9.57944 12.0556Z" fill="var(--fill-0, #78716C)"/>
</g>
</svg>
