<svg preserveAspectRatio="none" width="100%" height="100%" overflow="visible" style="display: block;" viewBox="0 0 32 38" fill="none" xmlns="http://www.w3.org/2000/svg">
<g id="Icon">
<path id="Vector" d="M5.41146 7.125V11.0833H9.50174L6.13715 22.1007C5.5434 22.4306 5.05411 22.9144 4.66927 23.5521C4.28443 24.1898 4.09201 24.8715 4.09201 25.5972C4.09201 26.6968 4.47685 27.6314 5.24653 28.401C6.0162 29.1707 6.95081 29.5556 8.05035 29.5556C8.90799 29.5556 9.67216 29.3082 10.3429 28.8134C11.0136 28.3186 11.4809 27.6863 11.7448 26.9167H15.967V28.2361C15.967 28.61 16.0935 28.9233 16.3464 29.1762C16.5992 29.4291 16.9126 29.5556 17.2865 29.5556C17.4844 29.5556 17.6768 29.5116 17.8637 29.4236C18.0506 29.3356 18.2101 29.2037 18.342 29.0278L20.5851 31.1389C20.783 31.3368 21.0194 31.4633 21.2943 31.5182C21.5692 31.5732 21.8385 31.5347 22.1024 31.4028L27.2483 29.0278C27.5122 28.8958 27.6936 28.7034 27.7925 28.4505C27.8915 28.1976 27.886 27.9502 27.776 27.7083C27.6441 27.4444 27.4517 27.274 27.1988 27.197C26.9459 27.1201 26.6985 27.1366 26.4566 27.2465L21.7066 29.4236L18.6059 26.5208V24.6736L21.7066 21.8368L26.4566 24.0139C26.6985 24.1238 26.9514 24.1348 27.2153 24.0469C27.4792 23.9589 27.6661 23.794 27.776 23.5521C27.908 23.2882 27.919 23.0353 27.809 22.7934C27.6991 22.5515 27.5122 22.3646 27.2483 22.2326L22.1024 19.7917C21.8385 19.6597 21.5692 19.6212 21.2943 19.6762C21.0194 19.7312 20.783 19.8576 20.5851 20.0556L18.342 22.1667C18.2101 22.0347 18.0506 21.9138 17.8637 21.8038C17.6768 21.6939 17.4844 21.6389 17.2865 21.6389C16.9126 21.6389 16.5992 21.7653 16.3464 22.0182C16.0935 22.2711 15.967 22.5845 15.967 22.9583V24.2778H11.7448C11.6788 24.1019 11.6073 23.9369 11.5304 23.783C11.4534 23.6291 11.349 23.4641 11.217 23.2882L17.8142 11.0833H22.5642V7.125H5.41146ZM8.05035 24.2778C8.42419 24.2778 8.73756 24.4042 8.99045 24.6571C9.24334 24.91 9.36979 25.2234 9.36979 25.5972C9.36979 25.9711 9.24334 26.2844 8.99045 26.5373C8.73756 26.7902 8.42419 26.9167 8.05035 26.9167C7.6765 26.9167 7.36314 26.7902 7.11024 26.5373C6.85735 26.2844 6.7309 25.9711 6.7309 25.5972C6.7309 25.2234 6.85735 24.91 7.11024 24.6571C7.36314 24.4042 7.6765 24.2778 8.05035 24.2778ZM12.2066 11.0833H14.7795L9.1059 21.6389C9.1059 21.6389 9.08391 21.6389 9.03993 21.6389C8.99595 21.6389 8.97396 21.6389 8.97396 21.6389L12.2066 11.0833Z" fill="var(--fill-0, #019863)"/>
</g>
</svg>
