<svg preserveAspectRatio="none" width="100%" height="100%" overflow="visible" style="display: block;" viewBox="0 0 20 24" fill="none" xmlns="http://www.w3.org/2000/svg">
<g id="Icon">
<path id="Vector" d="M10 8.66667C11.0417 8.66667 11.9271 9.03125 12.6563 9.76042C13.3854 10.4896 13.75 11.375 13.75 12.4167C13.75 13.4583 13.3854 14.3438 12.6563 15.0729C11.9271 15.8021 11.0417 16.1667 10 16.1667C8.95833 16.1667 8.07292 15.8021 7.34375 15.0729C6.61458 14.3438 6.25 13.4583 6.25 12.4167C6.25 11.375 6.61458 10.4896 7.34375 9.76042C8.07292 9.03125 8.95833 8.66667 10 8.66667ZM10 10.1667C9.375 10.1667 8.84375 10.3854 8.40625 10.8229C7.96875 11.2604 7.75 11.7917 7.75 12.4167C7.75 13.0417 7.96875 13.5729 8.40625 14.0104C8.84375 14.4479 9.375 14.6667 10 14.6667C10.625 14.6667 11.1563 14.4479 11.5938 14.0104C12.0313 13.5729 12.25 13.0417 12.25 12.4167C12.25 11.7917 12.0313 11.2604 11.5938 10.8229C11.1563 10.3854 10.625 10.1667 10 10.1667ZM10 6.16667C7.97222 6.16667 6.125 6.73264 4.45833 7.86458C2.79167 8.99653 1.58333 10.5139 0.833333 12.4167C1.58333 14.3194 2.79167 15.8368 4.45833 16.9688C6.125 18.1007 7.97222 18.6667 10 18.6667C12.0278 18.6667 13.875 18.1007 15.5417 16.9688C17.2083 15.8368 18.4167 14.3194 19.1667 12.4167C18.4167 10.5139 17.2083 8.99653 15.5417 7.86458C13.875 6.73264 12.0278 6.16667 10 6.16667ZM10 7.83333C11.5694 7.83333 13.0104 8.24653 14.3229 9.07292C15.6354 9.89931 16.6389 11.0139 17.3333 12.4167C16.6389 13.8194 15.6354 14.934 14.3229 15.7604C13.0104 16.5868 11.5694 17 10 17C8.43056 17 6.98958 16.5868 5.67708 15.7604C4.36458 14.934 3.36111 13.8194 2.66667 12.4167C3.36111 11.0139 4.36458 9.89931 5.67708 9.07292C6.98958 8.24653 8.43056 7.83333 10 7.83333Z" fill="var(--fill-0, #9CA3AF)"/>
</g>
</svg>
